<svg viewBox="0 0 24 24" fill="none" xmlns="http://www.w3.org/2000/svg">
    <!-- Python 双蛇图标 -->
    <path d="M11.914 0C5.82 0 6.182 2.61 6.182 2.61l.007 2.703h5.885v.812H3.92S0 5.568 0 11.79c0 6.221 3.41 6.006 3.41 6.006h2.03v-2.88s-.11-3.41 3.35-3.41h5.76s3.24.052 3.24-3.13V3.13S18.14 0 11.914 0zM8.66 1.82a1.01 1.01 0 110 2.02 1.01 1.01 0 010-2.02z" fill="#3776AB"/>
    <path d="M12.086 24c6.094 0 5.732-2.61 5.732-2.61l-.007-2.703h-5.885v-.812h8.154S24 18.432 24 12.21c0-6.221-3.41-6.006-3.41-6.006h-2.03v2.88s.11 3.41-3.35 3.41h-5.76s-3.24-.052-3.24 3.13v5.276S5.86 24 12.086 24zm3.254-1.82a1.01 1.01 0 110-2.02 1.01 1.01 0 010 2.02z" fill="#FFD43B"/>
</svg>